<?xml version="1.0" standalone="no"?>
<!DOCTYPE svg PUBLIC "-//W3C//DTD SVG 20010904//EN"
 "http://www.w3.org/TR/2001/REC-SVG-20010904/DTD/svg10.dtd">
<svg version="1.0" xmlns="http://www.w3.org/2000/svg"
 width="439.000000pt" height="439.000000pt" viewBox="0 0 439.000000 439.000000"
 preserveAspectRatio="xMidYMid meet">
<metadata>
Created by potrace 1.14, written by Peter Selinger 2001-2017
</metadata>
<g transform="translate(0.000000,439.000000) scale(0.100000,-0.100000)"
fill="#000000" stroke="none">
<path d="M680 4357 c30 -18 71 -39 90 -47 38 -14 100 -56 158 -106 21 -17 58
-41 85 -52 26 -12 47 -26 47 -31 0 -6 7 -11 15 -11 8 0 24 -9 35 -20 11 -11
28 -20 38 -20 10 0 36 -17 59 -38 42 -39 99 -70 110 -59 3 4 -10 19 -28 34
-90 75 -114 114 -88 140 20 20 -21 60 -175 170 -17 12 -42 32 -54 43 -31 27
-86 27 -105 0 -12 -17 -19 -19 -41 -10 -15 5 -29 17 -32 25 -5 12 -24 15 -88
15 l-81 0 55 -33z"/>
<path d="M3390 4240 c-9 -6 -10 -10 -3 -10 6 0 15 5 18 10 8 12 4 12 -15 0z"/>
<path d="M4360 4195 c0 -8 7 -15 15 -15 8 0 15 7 15 15 0 8 -7 15 -15 15 -8 0
-15 -7 -15 -15z"/>
<path d="M3054 4124 c-18 -14 -18 -14 6 -3 31 14 36 19 24 19 -6 0 -19 -7 -30
-16z"/>
<path d="M2960 4075 c-19 -14 -31 -25 -26 -25 10 0 76 40 76 46 0 9 -17 2 -50
-21z"/>
<path d="M2885 4000 c-3 -6 1 -7 9 -4 18 7 21 14 7 14 -6 0 -13 -4 -16 -10z"/>
<path d="M2835 3960 c-16 -16 -26 -32 -24 -35 3 -3 18 9 34 25 16 16 26 32 24
35 -3 3 -18 -9 -34 -25z"/>
<path d="M2736 3873 c-6 -14 -5 -15 5 -6 7 7 10 15 7 18 -3 3 -9 -2 -12 -12z"/>
<path d="M3661 3820 c-28 -4 -32 -7 -20 -17 17 -13 119 -16 119 -2 0 5 -1 9
-3 9 -1 0 -16 4 -32 8 -17 4 -45 5 -64 2z"/>
<path d="M3580 3816 c0 -9 30 -14 35 -6 4 6 -3 10 -14 10 -12 0 -21 -2 -21 -4z"/>
<path d="M3493 3795 c-12 -8 -36 -17 -55 -19 -21 -2 -34 -9 -36 -20 -4 -17
-18 -21 -26 -7 -3 5 -39 -2 -78 -15 -46 -16 -74 -21 -76 -14 -6 16 -22 1 -22
-20 0 -12 -14 -27 -37 -39 -43 -22 -90 -59 -145 -114 -21 -21 -50 -40 -64 -41
-29 -3 -45 -22 -37 -43 4 -9 16 -12 36 -9 24 4 36 -1 56 -23 15 -16 25 -34 23
-40 -2 -6 2 -11 8 -11 7 0 14 9 17 19 9 36 100 55 111 24 3 -12 -3 -16 -47
-29 -11 -3 -11 -7 -1 -19 19 -22 37 -18 44 10 4 16 13 25 26 25 11 0 20 5 20
11 0 6 7 8 16 5 9 -4 22 -1 30 5 9 7 19 7 31 0 12 -6 25 -6 34 0 9 6 10 9 2 9
-19 0 -5 26 23 40 28 15 16 29 -26 31 -14 0 -20 3 -14 5 7 3 10 14 7 24 -4 16
0 20 20 20 19 0 30 -9 41 -31 9 -17 13 -35 10 -40 -3 -5 2 -12 10 -15 9 -3 13
-10 10 -15 -6 -11 4 -11 31 1 17 7 17 9 3 9 -10 1 -18 5 -18 10 0 5 9 7 21 4
13 -4 29 3 48 22 20 18 31 23 36 15 4 -6 16 -9 27 -6 31 7 45 -14 44 -66 -1
-45 2 -48 33 -24 36 28 139 51 268 60 35 3 67 7 72 10 5 3 42 8 82 12 41 3 75
7 77 9 8 8 -10 45 -19 40 -5 -4 -9 1 -9 9 0 19 37 16 49 -3 4 -6 20 -13 34
-14 15 -1 27 -5 27 -9 1 -24 -1 -28 -15 -28 -8 0 -15 5 -15 10 0 6 -7 10 -15
10 -13 0 -13 -3 -3 -20 17 -27 -2 -40 -59 -40 -35 0 -45 -5 -63 -30 -24 -34
-32 -36 -53 -15 -8 8 -18 11 -21 7 -4 -3 -4 1 0 11 3 9 10 17 15 17 5 0 9 5 9
11 0 8 -5 8 -15 -1 -8 -7 -22 -9 -31 -6 -10 4 -22 -1 -30 -11 -13 -17 -14 -17
-20 3 -8 30 -44 20 -44 -11 0 -16 -8 -26 -22 -30 -13 -4 -37 -13 -53 -20 -52
-23 -195 -20 -195 5 0 8 -32 22 -55 25 -5 0 -32 5 -58 9 -43 8 -55 5 -103 -20
-34 -18 -54 -35 -54 -46 0 -21 -13 -30 -34 -22 -21 8 -21 30 0 38 13 5 14 9 3
22 -11 13 -14 12 -24 -13 -7 -15 -10 -33 -8 -39 4 -12 -38 -34 -66 -34 -25 0
-43 -24 -34 -46 6 -17 5 -17 -10 -5 -9 7 -17 20 -17 27 0 8 -7 14 -15 14 -8 0
-15 -7 -15 -15 0 -21 -12 -19 -38 5 -12 12 -22 16 -22 10 0 -5 -18 -10 -40
-10 -21 0 -50 -5 -64 -11 -50 -23 -112 19 -100 68 5 19 11 21 54 17 55 -5 71
7 39 30 -19 13 -24 13 -46 -1 -26 -17 -40 -12 -27 9 5 7 9 19 10 26 2 13 34
57 70 98 11 12 34 29 52 38 38 20 40 26 9 22 -52 -5 -181 -126 -171 -158 3
-12 0 -18 -10 -18 -20 0 -42 -78 -28 -100 5 -8 18 -15 28 -15 34 0 84 -46 84
-77 0 -39 58 -78 108 -72 45 6 73 -9 54 -28 -16 -16 -15 -25 4 -32 21 -8 45
11 37 30 -4 11 5 14 40 14 41 0 45 2 45 24 0 19 -7 26 -29 31 -35 8 -37 22 -5
31 26 6 111 1 156 -10 14 -3 40 -9 58 -12 17 -4 32 -10 32 -15 0 -17 -67 -38
-133 -42 -37 -3 -71 -7 -74 -11 -11 -10 -10 -60 0 -73 14 -18 93 -16 123 3 19
13 23 13 19 3 -4 -10 8 -18 37 -27 76 -21 139 -33 149 -27 12 8 49 -4 49 -16
0 -5 -7 -9 -15 -9 -21 0 -19 -26 2 -34 10 -4 22 -1 28 8 9 12 19 13 51 5 41
-10 53 -12 174 -24 84 -8 211 13 242 41 14 14 26 14 91 3 40 -7 82 -9 92 -5
16 6 13 10 -19 32 -30 20 -45 25 -72 20 -29 -6 -33 -5 -27 11 6 17 49 63 59
63 2 0 4 -6 4 -14 0 -8 7 -17 16 -20 10 -4 13 -13 9 -25 -4 -14 0 -21 15 -26
28 -9 36 0 19 21 -11 14 -10 15 11 12 25 -4 27 -9 15 -40 -9 -23 24 -24 87 -2
l45 15 2 348 1 347 -72 13 c-40 6 -104 16 -143 22 -38 6 -86 19 -106 28 -38
19 -68 13 -54 -9 6 -9 -7 -11 -54 -5 -58 7 -124 9 -162 6 -9 0 -29 -13 -44
-27 -21 -20 -30 -23 -36 -13 -4 8 -11 10 -15 6 -4 -4 -13 -2 -21 4 -8 7 -29 9
-54 5 -35 -6 -44 -3 -56 13 -7 11 -20 18 -28 15 -9 -4 -15 0 -15 10 0 20 -10
20 -37 1z m56 -62 c-21 -27 -32 -33 -63 -33 -17 0 -42 -12 -63 -30 -34 -30
-63 -39 -63 -19 0 7 -14 8 -42 3 -24 -4 -51 -8 -62 -9 -10 -1 -24 -9 -31 -18
-7 -9 -15 -14 -18 -11 -3 3 -10 -4 -17 -15 -12 -24 -43 -29 -34 -6 4 10 0 15
-12 15 -16 0 -17 2 -3 15 8 9 28 18 44 21 15 3 36 9 46 14 10 6 25 7 33 4 9
-3 16 -1 16 5 0 17 55 41 94 41 19 0 39 6 43 14 11 19 31 24 92 25 50 1 52 0
40 -16z m351 -8 c0 -8 -2 -15 -4 -15 -2 0 -6 7 -10 15 -3 8 -1 15 4 15 6 0 10
-7 10 -15z m193 8 c-7 -2 -19 -2 -25 0 -7 3 -2 5 12 5 14 0 19 -2 13 -5z
m-389 -100 c14 -36 -26 -43 -106 -19 -35 11 -56 12 -83 5 -49 -14 -36 -28 20
-21 37 4 45 2 45 -12 0 -9 5 -16 11 -16 5 0 7 -5 4 -10 -5 -8 -11 -8 -19 -1
-7 6 -36 9 -64 7 -51 -4 -63 2 -75 35 -4 12 0 15 16 12 13 -3 31 4 44 16 26
25 57 26 106 6 27 -11 38 -12 43 -3 4 7 2 14 -4 16 -7 2 -10 8 -7 12 8 13 62
-9 69 -27z m98 -58 c3 -18 -3 -20 -49 -22 -50 -1 -70 11 -38 23 8 4 15 12 15
20 0 7 8 17 18 23 20 12 48 -11 54 -44z m258 26 c5 -11 10 -31 10 -45 0 -24
-4 -26 -40 -26 -22 0 -40 4 -40 10 0 5 -13 7 -29 4 -24 -5 -32 -1 -46 20 -21
31 -21 30 30 44 66 17 103 14 115 -7z m-230 -1 c0 -5 -4 -10 -10 -10 -5 0 -10
5 -10 10 0 6 5 10 10 10 6 0 10 -4 10 -10z m-430 -16 c0 -11 -5 -14 -16 -10
-9 3 -20 6 -25 6 -5 0 -9 5 -9 10 0 6 11 10 25 10 16 0 25 -6 25 -16z m-350
-64 c0 -5 -9 -10 -21 -10 -11 0 -17 5 -14 10 3 6 13 10 21 10 8 0 14 -4 14
-10z m1239 -14 c5 -13 17 -26 25 -29 36 -14 6 -40 -34 -30 -17 4 -19 8 -8 15
10 7 9 11 -6 23 -11 8 -16 21 -13 30 9 22 26 18 36 -9z m-579 -6 c0 -5 -7 -10
-15 -10 -8 0 -15 5 -15 10 0 6 7 10 15 10 8 0 15 -4 15 -10z m-680 -44 c0 -3
-4 -8 -10 -11 -5 -3 -10 -1 -10 4 0 6 5 11 10 11 6 0 10 -2 10 -4z m1336 -58
c-9 -12 -21 -39 -26 -58 -11 -42 -60 -113 -60 -87 0 10 -5 14 -15 11 -26 -10
-17 22 21 72 20 26 43 63 51 82 13 31 16 33 30 19 14 -14 14 -17 -1 -39z
m-485 -2 c-10 -12 -6 -15 19 -21 16 -4 30 -13 30 -21 0 -25 -43 -11 -80 26
-20 20 -13 28 24 29 15 1 16 -2 7 -13z m-428 -6 c7 0 6 -4 -2 -9 -12 -8 -9
-11 13 -17 19 -4 25 -11 21 -22 -3 -8 -1 -18 5 -22 19 -12 -18 -40 -51 -40
-36 0 -99 25 -99 39 0 6 5 11 10 11 6 0 10 -4 10 -9 0 -6 8 -9 18 -9 9 1 28
-1 42 -5 21 -5 25 -3 25 18 0 18 -5 23 -20 22 -14 -1 -20 4 -19 16 1 9 -3 17
-10 17 -6 0 -4 5 4 10 8 5 21 8 28 5 8 -3 19 -5 25 -5z m820 -20 c-3 -11 -9
-20 -14 -20 -10 0 -12 33 -3 43 12 12 22 -3 17 -23z m-121 -3 c-3 -20 9 -22
26 -5 9 9 12 8 12 -5 0 -10 -8 -17 -20 -17 -11 0 -20 -6 -20 -12 0 -7 -8 1
-19 17 -20 33 -18 48 7 43 10 -2 16 -11 14 -21z m-435 -46 c10 -16 9 -20 -9
-24 -12 -3 -17 -10 -13 -17 4 -6 13 -9 21 -6 25 10 15 -20 -12 -35 -22 -12
-28 -11 -38 1 -6 8 -28 16 -50 17 -47 2 -49 4 -37 37 8 19 18 26 38 26 16 0
35 5 43 10 23 15 44 12 57 -9z m238 -1 c-3 -5 -10 -10 -16 -10 -5 0 -9 5 -9
10 0 6 7 10 16 10 8 0 12 -4 9 -10z m255 0 c0 -5 -4 -10 -10 -10 -5 0 -10 5
-10 10 0 6 5 10 10 10 6 0 10 -4 10 -10z m-227 -50 c-7 -8 -22 24 -16 34 4 5
10 1 13 -10 4 -10 6 -21 3 -24z m-46 3 c-3 -3 -11 -2 -17 2 -9 6 -9 10 1 16
14 8 27 -7 16 -18z m-727 -4 c0 -5 -9 -9 -20 -9 -11 0 -20 6 -20 14 0 9 7 12
20 9 11 -3 20 -9 20 -14z m658 -6 c-2 -12 -11 -17 -23 -15 -28 5 -32 12 -15
22 24 15 42 11 38 -7z m79 -15 c15 -7 30 -15 33 -19 11 -13 73 -38 81 -33 5 3
6 -2 3 -11 -4 -11 3 -18 25 -26 39 -14 39 -29 0 -51 -42 -24 -45 -23 -46 18
-1 41 -35 78 -41 43 -2 -13 -11 -19 -28 -19 -14 0 -22 -4 -19 -10 3 -5 15 -10
25 -10 11 0 24 -9 30 -21 13 -24 15 -21 -30 -40 l-35 -14 34 -5 c48 -7 48 -22
2 -48 -50 -28 -81 -29 -74 -3 4 14 -3 24 -25 35 -17 9 -33 25 -37 35 -5 16
-12 19 -43 14 l-36 -6 18 27 c9 15 15 30 13 33 -3 2 -46 6 -97 8 -50 2 -94 6
-98 9 -8 9 28 34 60 41 15 4 38 15 51 25 18 14 34 18 60 13 20 -3 35 -11 34
-17 -1 -7 17 -11 48 -12 28 0 62 -3 78 -7 16 -5 27 -3 27 3 0 5 -10 10 -23 10
-25 0 -47 17 -47 37 0 16 21 17 57 1z m-454 -5 c-7 -2 -19 -2 -25 0 -7 3 -2 5
12 5 14 0 19 -2 13 -5z m657 -53 c0 -5 -4 -10 -10 -10 -5 0 -10 5 -10 10 0 6
5 10 10 10 6 0 10 -4 10 -10z m-1015 -10 c3 -5 -3 -10 -15 -10 -12 0 -18 5
-15 10 3 6 10 10 15 10 5 0 12 -4 15 -10z m395 -24 c0 -2 3 -11 6 -20 5 -12 0
-16 -19 -16 -13 0 -35 -8 -48 -19 -32 -25 -62 -33 -93 -25 -32 8 -34 30 -3 40
12 4 33 15 46 25 21 17 111 28 111 15z m700 -31 c27 -10 31 -14 18 -20 -9 -3
-30 1 -47 10 -53 27 -34 34 29 10z m84 -70 c-4 -8 -10 -15 -15 -15 -5 0 -9 7
-9 15 0 8 7 15 15 15 9 0 12 -6 9 -15z"/>
<path d="M3822 3158 c3 -7 18 -15 34 -18 26 -5 29 -9 26 -38 l-2 -33 25 17
c30 20 32 40 5 47 -13 3 -18 10 -14 21 5 13 -2 16 -36 16 -29 0 -40 -4 -38
-12z"/>
<path d="M3950 3100 c0 -5 5 -10 11 -10 5 0 7 5 4 10 -3 6 -8 10 -11 10 -2 0
-4 -4 -4 -10z"/>
<path d="M2620 3749 c-26 -63 -36 -177 -20 -239 6 -25 15 -61 19 -80 10 -47
36 -94 87 -161 43 -56 121 -128 152 -141 10 -3 41 -28 70 -55 29 -27 58 -50
65 -51 20 -1 73 -20 60 -21 -7 -1 -13 -7 -13 -15 0 -15 37 -29 45 -16 7 11
166 -40 192 -62 7 -6 13 -7 13 -2 0 4 7 -1 15 -12 14 -18 16 -18 25 -2 12 19
35 14 44 -9 5 -12 1 -14 -14 -10 -24 6 -25 -1 -4 -31 8 -12 11 -22 6 -22 -6 0
-8 -17 -5 -40 5 -34 3 -40 -12 -40 -15 0 -16 2 -4 17 11 13 11 17 2 20 -7 3
-13 11 -13 19 0 8 -4 14 -10 14 -5 0 -10 -7 -10 -15 0 -8 -4 -15 -10 -15 -18
0 -10 29 10 35 26 8 25 17 -2 41 -38 32 -61 41 -118 48 -45 5 -51 4 -33 -5 13
-7 25 -20 28 -30 3 -10 23 -28 43 -40 37 -22 37 -22 12 -29 -25 -6 -25 -6 -4
-18 33 -17 37 -49 8 -55 -13 -2 -24 0 -24 5 0 5 -11 13 -25 18 -15 6 -25 17
-25 30 0 14 -7 20 -21 20 -18 0 -19 -2 -9 -15 8 -10 9 -15 1 -15 -6 0 -18 11
-27 25 -13 20 -19 23 -30 14 -11 -9 -18 -8 -29 1 -18 15 -11 49 13 66 11 8 12
13 3 18 -8 5 -9 12 -2 20 7 8 5 12 -9 13 -12 1 -17 -3 -14 -11 3 -8 -1 -16 -9
-19 -10 -3 -13 -14 -10 -31 7 -36 -3 -33 -48 14 -39 40 -48 60 -29 60 6 0 10
9 10 21 0 25 -107 128 -132 129 -10 0 -18 4 -18 9 0 4 -31 40 -69 78 -38 39
-81 92 -97 118 -36 63 -64 165 -64 240 0 42 -3 56 -10 45 -17 -27 -11 -168 10
-241 11 -38 25 -71 31 -74 5 -4 7 -15 4 -25 -3 -10 3 -41 14 -68 13 -32 17
-54 10 -57 -12 -8 -39 55 -39 90 0 15 -4 24 -10 20 -20 -12 -11 -149 15 -229
14 -42 25 -82 25 -89 -1 -19 -30 22 -58 82 -25 54 -25 54 -38 29 -7 -14 -30
-72 -50 -129 -37 -104 -37 -104 -41 -304 -4 -147 1 -275 17 -485 12 -157 23
-314 26 -350 3 -57 12 -126 20 -168 1 -8 5 -17 9 -20 3 -3 -5 -11 -17 -18 -25
-14 -25 -13 30 -30 23 -7 2 -24 -31 -25 l-32 -1 30 -13 c16 -7 35 -11 42 -8 7
3 13 1 13 -5 0 -5 -16 -13 -35 -16 -35 -7 -50 -25 -18 -22 11 0 19 -7 21 -20
4 -29 -31 -37 -61 -14 -49 39 -96 50 -191 46 -144 -6 -297 -53 -385 -118 -13
-10 -28 -18 -32 -18 -9 0 -6 8 26 70 10 19 25 48 33 63 8 17 11 39 7 55 -12
49 -11 77 4 77 20 0 32 51 20 83 -6 15 -22 39 -36 54 -36 38 -22 46 31 17 59
-31 70 -22 92 76 1 6 2 20 3 32 1 12 10 24 22 28 11 4 18 12 16 18 -2 7 4 26
13 43 10 17 21 50 25 75 4 24 15 53 25 64 12 14 19 41 22 86 2 37 10 74 17 83
8 10 15 54 17 119 l4 103 -36 -4 c-19 -2 -37 -9 -39 -16 -2 -6 -7 -24 -11 -41
l-7 -30 -6 30 c-5 24 -9 16 -20 -49 -12 -66 -12 -79 0 -86 8 -6 16 -4 21 3 10
16 20 3 12 -17 -4 -10 -13 -15 -21 -12 -11 4 -13 1 -8 -14 4 -14 1 -22 -10
-26 -9 -4 -14 -12 -11 -19 3 -8 -1 -16 -9 -18 -7 -3 -25 -32 -39 -64 -38 -83
-66 -134 -90 -165 -12 -15 -29 -38 -39 -52 -18 -26 -39 -35 -35 -15 5 19 -18
21 -36 4 -10 -11 -14 -26 -10 -48 9 -53 12 -57 42 -57 24 0 31 -5 36 -27 3
-16 9 -39 12 -52 5 -17 4 -22 -4 -17 -7 4 -12 1 -12 -9 0 -9 5 -13 10 -10 6 4
10 -13 10 -45 0 -29 -4 -49 -9 -45 -5 3 -12 1 -16 -5 -10 -17 -25 -11 -18 7 5
13 2 15 -11 10 -10 -4 -22 -7 -27 -7 -5 0 -9 -9 -9 -21 0 -16 -4 -19 -20 -14
-17 5 -20 2 -21 -27 l-1 -33 -9 33 c-12 40 -29 42 -29 3 0 -33 -14 -41 -54
-34 -30 6 -45 34 -50 90 -1 18 -6 36 -11 40 -4 5 -6 -2 -3 -14 7 -27 -13 -46
-37 -36 -13 4 -16 3 -11 -5 4 -7 1 -12 -8 -12 -9 0 -16 -5 -16 -11 0 -6 -9 -8
-20 -4 -13 4 -22 1 -25 -7 -7 -17 45 -146 76 -191 13 -18 19 -29 15 -25 -4 3
-17 -3 -28 -14 -25 -25 -43 -12 -70 52 -11 24 -24 48 -30 52 -9 5 -9 10 -1 20
16 20 7 89 -21 151 -24 56 -47 80 -54 59 -2 -7 -7 -10 -12 -7 -9 6 14 -64 40
-118 11 -23 20 -52 19 -66 0 -14 -3 -20 -6 -14 -3 9 -14 6 -36 -10 -50 -36
-66 -59 -60 -89 4 -21 2 -28 -10 -28 -11 0 -14 -5 -10 -16 5 -13 2 -15 -13
-10 -14 4 -25 -2 -39 -21 -11 -14 -33 -41 -50 -58 -16 -17 -44 -48 -62 -68
-18 -22 -41 -37 -55 -38 -12 0 -17 -3 -10 -6 19 -8 14 -21 -10 -25 -13 -2 -22
-9 -20 -16 1 -8 -2 -11 -7 -8 -5 4 -12 2 -16 -4 -4 -6 -11 -7 -17 -4 -7 5 -9
0 -6 -14 4 -12 2 -20 -2 -17 -5 3 -11 1 -15 -5 -3 -5 -1 -10 5 -10 6 0 8 -5 5
-10 -4 -6 -10 -8 -15 -5 -10 6 -60 -34 -60 -48 0 -5 8 -4 18 3 9 8 -21 -23
-67 -68 -47 -44 -88 -79 -93 -76 -4 3 -8 -1 -8 -9 0 -8 -10 -21 -23 -30 -12
-8 -31 -24 -43 -35 -11 -10 -31 -25 -44 -32 -13 -7 -40 -28 -60 -46 -43 -40
-76 -64 -208 -149 -98 -63 -133 -78 -97 -41 23 22 8 20 -22 -4 -15 -12 -20
-20 -12 -20 8 0 -14 -14 -48 -32 -34 -17 -60 -35 -57 -40 3 -4 -6 -3 -19 3
-20 9 -32 7 -62 -7 -20 -9 -43 -17 -51 -17 -11 0 -14 -19 -14 -79 l0 -79 110
2 c61 1 107 5 104 10 -3 5 10 9 28 8 28 0 30 -2 13 -10 -17 -8 -16 -9 5 -3 14
3 59 7 100 9 99 4 104 4 98 10 -3 3 -79 8 -169 11 -90 4 -166 8 -168 10 -23
21 103 32 358 33 195 1 243 7 117 15 -75 5 -102 16 -40 16 22 0 44 4 50 9 10
11 100 18 109 9 3 -3 17 -3 30 0 22 4 24 7 13 20 -12 13 -8 14 30 8 25 -4 51
-2 63 5 16 8 24 7 38 -5 15 -14 18 -14 31 4 7 10 18 16 24 12 6 -3 61 -5 121
-4 77 2 106 0 95 -8 -12 -8 -11 -10 8 -10 13 0 20 4 17 10 -3 6 1 10 9 10 9 0
16 -5 16 -10 0 -19 46 -33 68 -21 14 7 22 7 24 1 2 -6 28 -13 58 -15 93 -8
140 -17 140 -26 0 -5 -12 -9 -26 -9 -14 0 -23 -4 -19 -10 3 -5 31 -10 61 -10
30 0 54 -4 54 -10 0 -6 -147 -11 -417 -12 l-418 -2 265 -7 c146 -3 326 -8 400
-9 l135 -3 -100 -9 c-55 -5 -122 -6 -150 -3 -35 4 -46 3 -35 -5 8 -5 51 -10
95 -11 l80 -1 -55 -12 c-31 -6 -50 -15 -43 -19 6 -4 18 -5 25 -2 9 4 15 0 15
-10 0 -8 -5 -15 -11 -15 -6 0 -5 -5 2 -12 10 -10 15 -10 20 -1 9 15 41 11 52
-6 4 -7 28 -14 54 -15 25 -1 50 -6 55 -11 7 -7 -86 -11 -256 -13 -147 -1 -269
-5 -272 -8 -9 -9 1151 -3 1175 6 16 6 24 6 24 -1 0 -6 7 -6 18 -1 9 5 53 9 97
11 44 1 93 4 109 7 17 4 31 1 36 -6 5 -9 13 -9 27 -2 12 7 102 11 223 12 120
0 208 4 214 10 7 7 -12 10 -55 10 l-64 1 39 14 c21 7 45 11 52 8 8 -3 14 0 14
7 0 8 9 11 24 8 15 -3 27 2 35 14 6 10 15 17 20 14 10 -7 81 15 81 25 0 5 -7
6 -15 3 -8 -4 -15 -1 -15 5 0 6 -7 11 -16 11 -8 0 -12 4 -9 10 3 5 40 10 81
10 93 0 100 20 7 21 -47 1 -59 3 -38 8 35 7 37 21 4 38 -14 8 -18 13 -9 13 13
0 13 1 0 10 -13 9 -13 11 0 20 8 5 26 10 39 10 32 0 22 9 -12 12 -15 1 -27 8
-27 14 0 13 30 23 80 25 25 2 20 4 -20 8 -46 5 -55 9 -55 26 0 11 -4 26 -8 33
-5 7 -7 22 -6 35 2 12 0 28 -4 34 -13 21 -37 124 -32 134 4 5 -1 6 -9 3 -11
-4 -19 3 -26 21 -6 15 -35 55 -65 89 -58 66 -84 115 -62 117 6 1 24 2 39 3 40
2 46 16 7 17 -19 1 -26 3 -16 6 9 2 15 9 12 14 -4 5 -1 9 4 9 6 0 11 -4 11
-10 0 -5 7 -10 15 -10 8 0 15 -7 15 -15 0 -10 10 -14 33 -14 17 1 52 -4 76 -9
25 -6 49 -8 53 -6 5 3 16 0 24 -7 13 -10 17 -10 24 1 7 11 15 12 37 4 15 -6
27 -16 25 -22 -1 -9 30 -12 110 -13 62 0 122 -2 133 -4 36 -7 156 -7 390 0
340 10 340 10 338 22 -4 18 82 32 129 21 23 -5 47 -7 55 -4 11 4 13 167 13
917 l0 911 -22 -7 c-195 -60 -349 -86 -503 -84 l-100 1 128 14 c77 9 137 20
150 29 13 9 46 15 87 16 36 0 108 10 160 22 l95 22 3 53 3 53 -48 -7 c-26 -3
-52 -9 -57 -12 -5 -3 -7 7 -4 22 6 30 -7 34 -34 9 -10 -9 -30 -17 -46 -19 -87
-8 -122 -17 -123 -33 0 -10 -2 -11 -6 -3 -2 6 -19 12 -36 11 -18 0 -25 -3 -17
-6 8 -2 30 -12 49 -20 l34 -16 -24 -14 c-19 -11 -20 -13 -4 -9 11 2 38 7 60
11 22 3 58 12 80 19 69 23 95 27 95 16 0 -5 -5 -10 -10 -10 -6 0 -23 -9 -38
-20 -15 -11 -49 -22 -77 -25 -102 -12 -145 -13 -145 -3 0 6 -7 7 -16 4 -20 -8
-95 4 -89 14 3 5 1 19 -4 33 -6 16 -6 28 2 36 8 8 5 11 -11 11 -13 0 -22 -6
-22 -16 0 -13 -8 -15 -50 -9 -27 4 -50 5 -50 2 0 -3 7 -17 15 -33 11 -22 12
-31 2 -43 -10 -12 -7 -13 23 -6 59 14 127 8 109 -9 -8 -8 -205 -13 -229 -6
-21 7 -22 8 -5 10 13 1 6 7 -20 15 -22 7 -50 11 -63 8 -19 -4 -23 -2 -20 13 2
12 -4 20 -17 22 -16 4 -17 2 -7 -11 11 -13 5 -16 -47 -22 -47 -5 -64 -3 -84
10 -14 9 -29 16 -32 15 -4 -1 -9 1 -13 4 -3 3 4 6 15 6 24 0 33 18 33 65 0 20
-6 35 -15 39 -17 6 -19 15 -6 34 6 10 14 9 39 -5 31 -18 42 -46 22 -58 -5 -3
-10 -22 -10 -41 0 -27 4 -34 19 -34 11 0 23 -4 26 -10 3 -5 14 -10 23 -9 11 0
12 3 5 6 -7 2 -13 11 -13 19 0 8 -7 17 -15 20 -23 9 -18 30 11 49 21 13 23 19
13 31 -10 13 -10 17 0 23 7 5 11 17 9 27 -2 13 -21 23 -68 35 -36 10 -78 18
-95 18 -16 1 -52 10 -80 20 -27 11 -88 32 -135 47 -137 43 -275 117 -348 188
-163 155 -241 311 -229 455 3 36 13 86 21 110 23 62 13 62 -14 0z m88 -724
c-3 -3 -9 2 -12 12 -6 14 -5 15 5 6 7 -7 10 -15 7 -18z m126 -31 c18 -17 22
-39 6 -29 -11 7 -33 45 -26 45 2 0 12 -7 20 -16z m96 -13 c0 -11 -26 -22 -34
-14 -12 12 -5 23 14 23 11 0 20 -4 20 -9z m-331 -182 c14 -42 14 -49 -3 -43
-16 6 -26 -23 -26 -81 0 -22 -7 -51 -14 -64 -13 -23 -13 -23 -20 22 -9 58 3
146 23 174 21 30 27 29 40 -8z m1631 -59 c0 -5 -7 -10 -16 -10 -8 0 -12 5 -9
10 3 6 10 10 16 10 5 0 9 -4 9 -10z m-625 -80 c3 -6 -5 -10 -19 -10 -14 0 -28
5 -31 10 -3 6 5 10 19 10 14 0 28 -4 31 -10z m480 -260 c-11 -5 -38 -8 -60 -8
l-40 1 40 7 c22 4 49 7 60 8 l20 1 -20 -9z m-14 -255 c27 -4 59 -25 59 -38 0
-3 -23 -8 -50 -12 -42 -6 -49 -9 -39 -21 9 -11 8 -15 -4 -20 -19 -7 -58 13
-54 28 1 6 -13 15 -32 20 -36 10 -35 12 6 38 26 17 38 17 114 5z m-2414 -717
c-3 -8 -6 -5 -6 6 -1 11 2 17 5 13 3 -3 4 -12 1 -19z m63 -29 c0 9 20 -23 20
-33 0 -5 -6 -4 -13 3 -10 7 -17 7 -24 0 -8 -8 -17 -7 -32 3 -34 21 -26 37 14
28 19 -4 35 -5 35 -1z m-41 -74 c0 -19 -1 -19 -11 3 -6 12 -15 22 -20 22 -4 0
-8 5 -8 10 0 6 8 5 20 -2 11 -7 20 -22 19 -33z m189 -150 c22 -31 26 -44 17
-51 -6 -5 -55 -42 -108 -82 -84 -63 -99 -71 -117 -62 -15 8 -19 17 -15 31 4
11 -2 33 -13 52 -11 17 -20 46 -21 62 -1 17 -3 48 -5 70 -2 22 -4 57 -5 78 -1
23 -5 36 -11 32 -15 -9 -12 11 4 24 12 10 15 3 21 -41 4 -29 13 -63 21 -75 8
-12 14 -37 14 -55 l1 -33 34 38 c20 20 42 37 50 37 8 0 19 16 25 39 5 21 23
61 38 87 l27 49 6 -79 c6 -65 12 -86 37 -121z m364 173 c3 -7 11 -13 19 -14
43 -3 49 -5 49 -14 0 -14 -52 -12 -72 4 -19 14 -24 36 -9 36 5 0 11 -6 13 -12z
m-8 -64 c9 -24 7 -27 -9 -10 -17 17 -19 26 -6 26 5 0 12 -7 15 -16z m-107 -10
c-3 -3 -12 -4 -19 -1 -8 3 -5 6 6 6 11 1 17 -2 13 -5z m270 -50 c-3 -3 -12 -4
-19 -1 -8 3 -5 6 6 6 11 1 17 -2 13 -5z m-87 -48 c0 -5 -7 -3 -15 4 -8 7 -12
17 -9 22 7 10 24 -9 24 -26z m31 -23 c13 -16 12 -17 -3 -4 -17 13 -22 21 -14
21 2 0 10 -8 17 -17z m29 -32 c0 -5 -7 -11 -14 -14 -10 -4 -13 -1 -9 9 6 15
23 19 23 5z m-903 -43 c-3 -8 -6 -5 -6 6 -1 11 2 17 5 13 3 -3 4 -12 1 -19z
m846 15 c-7 -2 -19 -2 -25 0 -7 3 -2 5 12 5 14 0 19 -2 13 -5z m-744 -34 c1
-13 8 -27 15 -31 6 -5 3 -8 -10 -8 -12 0 -27 -7 -34 -15 -18 -22 -27 -19 -38
14 -8 24 -7 32 4 42 13 10 17 10 25 -2 7 -11 9 -9 9 9 0 31 24 23 29 -9z m664
-22 l19 -32 -26 24 c-26 24 -33 41 -18 41 4 0 15 -15 25 -33z m-754 -37 c0 -9
-4 -8 -9 5 -5 11 -9 27 -9 35 0 9 4 8 9 -5 5 -11 9 -27 9 -35z m29 -91 c-51
-37 -74 -59 -55 -53 24 9 21 -9 -5 -26 -12 -8 -38 -32 -58 -52 -20 -21 -42
-38 -48 -38 -7 0 -12 -5 -12 -12 0 -6 -3 -9 -6 -5 -3 3 -17 2 -31 -4 -30 -11
-58 2 -95 45 -29 33 -37 65 -15 67 6 1 1 4 -12 8 -29 8 -46 45 -27 60 10 8 11
4 8 -20 l-5 -31 93 7 c107 8 165 23 235 56 57 28 73 27 33 -2z m725 11 c-3
-11 -7 -20 -8 -20 -1 0 -5 9 -8 20 -3 12 0 20 8 20 8 0 11 -8 8 -20z m-313
-10 c0 -5 -2 -10 -4 -10 -3 0 -8 5 -11 10 -3 6 -1 10 4 10 6 0 11 -4 11 -10z
m421 -17 c13 -16 12 -17 -3 -4 -17 13 -22 21 -14 21 2 0 10 -8 17 -17z m514 7
c3 -5 2 -10 -4 -10 -5 0 -13 5 -16 10 -3 6 -2 10 4 10 5 0 13 -4 16 -10z
m-625 -14 c0 -3 -4 -8 -10 -11 -5 -3 -10 -1 -10 4 0 6 5 11 10 11 6 0 10 -2
10 -4z m647 -12 c-3 -3 -12 -4 -19 -1 -8 3 -5 6 6 6 11 1 17 -2 13 -5z m-1181
-61 c-7 -7 -26 7 -26 19 0 6 6 6 15 -2 9 -7 13 -15 11 -17z m369 17 c3 -5 1
-10 -4 -10 -6 0 -11 5 -11 10 0 6 2 10 4 10 3 0 8 -4 11 -10z m2055 -10 c0 -5
-4 -10 -10 -10 -5 0 -10 5 -10 10 0 6 5 10 10 10 6 0 10 -4 10 -10z m-2085
-10 c3 -5 2 -10 -4 -10 -5 0 -13 5 -16 10 -3 6 -2 10 4 10 5 0 13 -4 16 -10z
m-572 -100 c-36 -41 -52 -38 -16 4 15 18 31 31 35 29 4 -2 -4 -17 -19 -33z
m612 -50 c22 -11 32 -20 23 -20 -23 0 -68 21 -68 32 0 11 0 11 45 -12z m-679
-25 c2 -11 -8 -15 -34 -15 l-37 0 30 20 c30 20 37 19 41 -5z m113 -5 c8 -4
-10 -7 -40 -6 -37 1 -56 5 -56 13 0 13 67 8 96 -7z m-342 -6 c-3 -3 -12 -4
-19 -1 -8 3 -5 6 6 6 11 1 17 -2 13 -5z m813 -9 c7 -9 8 -15 2 -15 -5 0 -12 7
-16 15 -3 8 -4 15 -2 15 2 0 9 -7 16 -15z m-603 -18 c29 -1 57 -7 64 -14 8 -8
8 -11 -2 -10 -8 0 -34 -1 -59 -2 l-45 -3 45 -16 45 -17 -55 -5 c-76 -7 -278 3
-262 13 7 5 22 7 35 6 12 -2 28 0 36 5 7 5 33 8 58 8 25 -1 43 1 40 4 -3 4
-38 6 -76 5 -41 0 -71 3 -71 9 0 6 10 10 23 11 58 3 121 10 126 15 3 3 15 2
26 -1 11 -3 43 -7 72 -8z m-462 -97 c3 -5 -1 -10 -10 -10 -9 0 -13 5 -10 10 3
6 8 10 10 10 2 0 7 -4 10 -10z m352 4 c18 -4 30 -10 27 -15 -3 -5 16 -9 43 -9
26 0 55 -5 63 -11 12 -8 10 -9 -8 -4 -14 4 -32 0 -47 -9 -13 -9 -32 -16 -42
-15 -12 1 -10 3 7 9 22 7 21 8 -13 9 -23 1 -36 -3 -32 -9 4 -6 -14 -10 -46
-10 -29 0 -50 -3 -46 -6 6 -7 42 -10 147 -14 l75 -3 -110 -12 -110 -12 153 -1
c88 -1 151 -6 148 -11 -8 -12 -87 -19 -261 -25 -106 -4 -132 -3 -106 5 19 6
45 9 58 6 13 -2 26 0 30 5 5 10 -222 6 -392 -6 -43 -3 -55 -2 -42 5 9 6 15 14
12 20 -4 5 21 9 59 9 40 0 66 4 66 11 0 5 -8 9 -17 8 -10 -1 -45 0 -78 1 -55
2 -57 3 -28 11 18 5 35 14 38 19 3 6 18 10 33 10 21 0 24 -2 12 -10 -12 -8
-11 -10 7 -10 12 0 23 5 25 12 3 8 34 11 99 10 108 -2 195 15 99 19 -30 1 -64
3 -75 4 -11 1 -33 3 -50 4 -20 1 -26 4 -17 9 15 10 272 14 319 6z m-599 -110
c12 -4 22 -10 22 -15 0 -15 -48 -10 -54 6 -6 16 -2 18 32 9z m377 -34 c3 -5 1
-10 -4 -10 -6 0 -11 5 -11 10 0 6 2 10 4 10 3 0 8 -4 11 -10z m-58 -36 c-3 -3
-12 -4 -19 -1 -8 3 -5 6 6 6 11 1 17 -2 13 -5z m-863 -29 c-4 -8 -10 -15 -14
-15 -5 0 -15 -3 -24 -6 -9 -3 -16 -1 -16 5 0 7 10 16 23 21 32 13 37 12 31 -5z
m364 -62 c-21 -2 -55 -2 -75 0 -21 2 -4 4 37 4 41 0 58 -2 38 -4z m1132 -43
c0 -5 -5 -10 -11 -10 -5 0 -7 5 -4 10 3 6 8 10 11 10 2 0 4 -4 4 -10z m-205
-100 c3 -5 -1 -10 -9 -10 -9 0 -16 5 -16 10 0 6 4 10 9 10 6 0 13 -4 16 -10z
m280 -68 c-6 -5 -37 -6 -70 -2 l-60 7 70 2 c38 0 65 -3 60 -7z"/>
<path d="M1330 780 c0 -5 7 -10 16 -10 8 0 12 5 9 10 -3 6 -10 10 -16 10 -5 0
-9 -4 -9 -10z"/>
<path d="M1288 563 c6 -2 18 -2 25 0 6 3 1 5 -13 5 -14 0 -19 -2 -12 -5z"/>
<path d="M3135 3780 c-3 -6 1 -7 9 -4 18 7 21 14 7 14 -6 0 -13 -4 -16 -10z"/>
<path d="M3050 3740 c-33 -26 -14 -26 25 0 17 11 23 20 15 20 -8 0 -26 -9 -40
-20z"/>
<path d="M2803 3677 c-14 -22 -23 -55 -23 -78 0 -21 -4 -39 -10 -39 -5 0 -10
-12 -10 -27 0 -14 -6 -34 -14 -42 -19 -21 -25 -103 -8 -108 6 -3 12 1 12 9 0
30 50 117 98 172 28 32 79 78 114 103 37 26 53 42 38 38 -29 -8 -66 -36 -134
-99 -26 -25 -52 -46 -57 -46 -14 0 -11 34 7 75 8 20 14 47 12 59 -3 18 -6 16
-25 -17z"/>
<path d="M3320 3540 c0 -5 5 -10 10 -10 6 0 10 5 10 10 0 6 -4 10 -10 10 -5 0
-10 -4 -10 -10z"/>
<path d="M3560 3451 c0 -6 5 -13 10 -16 6 -3 10 1 10 9 0 9 -4 16 -10 16 -5 0
-10 -4 -10 -9z"/>
<path d="M1667 3443 c-4 -6 3 -31 15 -54 27 -53 36 -35 11 23 -12 26 -22 38
-26 31z"/>
<path d="M905 3350 c3 -5 15 -10 26 -10 11 0 17 5 14 10 -3 6 -15 10 -26 10
-11 0 -17 -4 -14 -10z"/>
<path d="M3185 3350 c-3 -5 1 -10 10 -10 9 0 13 5 10 10 -3 6 -8 10 -10 10 -2
0 -7 -4 -10 -10z"/>
<path d="M1183 3318 c2 -7 11 -12 21 -10 9 2 16 -4 16 -13 0 -9 -9 -15 -22
-15 -23 -1 -23 -1 -3 -16 17 -13 18 -16 5 -24 -18 -12 -21 -12 -39 -1 -7 5
-11 13 -8 18 7 11 -40 40 -49 31 -3 -4 0 -16 6 -28 11 -20 10 -21 -8 -11 -16
8 -21 7 -26 -4 -3 -8 0 -16 7 -16 7 -1 17 -2 22 -4 6 -1 15 -3 22 -3 7 -1 19
-14 27 -29 13 -25 12 -28 -8 -38 -11 -6 -21 -19 -21 -30 0 -25 47 -37 99 -25
46 10 259 6 294 -5 30 -10 28 9 -3 29 -14 9 -25 24 -26 34 0 13 -2 12 -9 -5
-9 -21 -13 -22 -116 -19 -83 3 -110 7 -123 21 -15 16 -14 18 7 32 33 23 25 60
-18 75 -9 3 1 9 23 13 20 4 37 11 37 16 0 13 -34 11 -50 -3 -12 -11 -12 -10
-1 4 17 23 6 38 -30 38 -20 0 -29 -4 -26 -12z"/>
<path d="M700 3311 c-57 -11 -68 -25 -48 -57 4 -6 -3 -16 -17 -22 -18 -8 -25
-9 -25 -1 0 8 -6 7 -16 -2 -12 -10 -20 -10 -34 -1 -23 14 -37 -2 -21 -22 13
-16 61 -18 61 -4 0 6 10 8 22 5 12 -4 28 -2 34 4 7 6 23 9 36 7 18 -2 22 -8
20 -28 -2 -14 -12 -34 -23 -46 -25 -27 -24 -50 4 -58 34 -9 37 -8 37 17 0 13
13 33 34 49 32 26 35 26 50 9 9 -10 16 -23 16 -29 0 -6 4 -14 10 -17 14 -9 72
4 94 20 16 12 17 17 6 30 -7 8 -25 15 -41 15 -19 0 -30 6 -34 20 -3 11 -15 25
-26 31 -16 8 -19 16 -14 41 6 24 4 29 -6 22 -24 -14 -50 -11 -60 8 -5 10 -13
17 -17 17 -4 -1 -23 -4 -42 -8z"/>
<path d="M1346 3212 c-6 -9 82 -57 90 -49 10 10 -6 27 -25 27 -10 0 -24 7 -31
15 -14 17 -26 19 -34 7z"/>
<path d="M284 3190 c-12 -5 -25 -13 -29 -19 -3 -6 -19 -11 -35 -11 -23 0 -27
-3 -23 -20 5 -20 42 -28 57 -13 4 4 23 6 42 4 19 -1 42 3 50 9 10 9 14 9 14 1
0 -6 13 -11 30 -11 26 0 28 2 21 23 -6 15 -17 22 -36 22 -16 0 -30 6 -32 13
-5 14 -28 15 -59 2z"/>
<path d="M1020 3191 c0 -6 5 -13 10 -16 6 -3 10 1 10 9 0 9 -4 16 -10 16 -5 0
-10 -4 -10 -9z"/>
<path d="M447 3155 c-16 -33 -69 -66 -145 -90 -21 -6 -23 -4 -17 14 5 17 2 21
-17 21 -28 0 -42 -9 -51 -32 -5 -14 -15 -17 -42 -13 -20 2 -39 6 -44 9 -17 11
-34 -43 -27 -89 3 -26 3 -58 0 -71 -5 -20 -9 -22 -26 -13 -14 8 -23 8 -31 0
-6 -6 -19 -11 -29 -11 -30 0 -21 -87 14 -130 15 -19 28 -43 28 -53 0 -13 5
-17 16 -13 8 3 12 2 9 -4 -3 -6 -2 -10 3 -10 5 0 19 -9 31 -19 32 -28 43 -85
27 -146 -11 -47 -14 -50 -47 -53 -19 -2 -38 -8 -44 -13 -5 -5 -19 -9 -32 -9
-20 0 -23 -5 -23 -35 0 -19 3 -34 8 -33 16 5 52 -24 52 -42 0 -28 34 -44 60
-28 27 17 25 32 -4 24 -20 -5 -23 -3 -18 19 2 15 0 25 -7 25 -22 0 -10 15 29
38 37 21 83 33 51 13 -8 -5 -11 -16 -8 -25 4 -9 -2 -21 -16 -31 -18 -13 -19
-15 -4 -15 9 0 26 -5 36 -12 20 -12 19 -13 94 28 15 8 27 21 27 29 0 7 6 16
13 19 6 3 -10 5 -38 4 -76 -1 -90 1 -80 11 23 22 137 38 272 40 l142 2 33 -29
c18 -15 51 -41 73 -57 22 -16 45 -36 52 -45 16 -21 27 -6 12 18 -7 11 -9 26
-6 35 16 42 117 69 138 37 7 -12 9 -12 9 3 0 10 5 15 10 12 19 -12 50 6 75 43
25 36 27 37 93 39 37 1 82 2 100 2 21 1 32 6 32 16 0 8 6 12 14 9 10 -4 12 2
8 23 -4 17 -7 22 -10 12 -5 -24 -37 -13 -53 17 -15 30 -7 38 49 49 19 4 41 12
48 20 11 11 6 14 -31 19 -53 8 -63 20 -39 47 25 27 44 24 89 -17 22 -21 41
-32 43 -25 5 16 57 14 72 -4 17 -21 26 -19 35 8 6 19 8 19 12 5 6 -24 20 -23
28 2 3 11 12 20 19 20 19 0 7 69 -15 83 -26 16 -24 34 6 41 31 8 46 0 39 -19
-5 -12 0 -12 27 -5 44 13 55 25 40 44 -18 22 -3 39 28 32 l26 -6 -27 17 c-16
10 -28 21 -28 26 0 4 5 5 10 2 12 -7 13 15 2 32 -4 6 -19 17 -32 23 -48 21
-67 35 -62 48 2 6 -1 12 -6 12 -15 0 -28 -22 -30 -49 0 -14 -9 -32 -19 -42
-19 -19 -108 -32 -133 -19 -8 4 -28 10 -44 14 -23 6 -27 4 -22 -8 3 -9 9 -23
12 -31 5 -12 -2 -15 -30 -15 -37 0 -41 8 -22 52 17 38 -27 52 -64 21 -20 -17
-27 -43 -12 -43 4 0 22 -13 40 -30 28 -24 30 -29 13 -27 -12 1 -21 7 -21 14 0
20 -14 15 -29 -9 l-14 -22 -9 24 c-9 24 -10 24 -23 7 -14 -19 -55 -16 -55 4 0
5 -11 9 -25 9 -29 0 -35 -30 -9 -51 11 -9 14 -22 10 -43 -5 -28 -4 -29 8 -13
17 22 26 22 26 -3 0 -11 -5 -20 -12 -20 -6 0 -9 -2 -6 -5 9 -9 38 7 38 21 0
19 22 64 32 64 4 0 8 -9 8 -20 0 -28 33 -26 45 3 19 44 172 30 169 -16 -1 -9
4 -17 11 -17 7 0 15 -4 17 -10 2 -5 31 -13 66 -16 63 -7 68 -10 54 -31 -20
-31 -140 -38 -128 -7 8 21 -3 17 -24 -8 l-17 -22 -12 22 c-6 12 -18 22 -26 22
-8 0 -15 6 -15 13 0 9 -11 12 -35 9 -21 -3 -32 -8 -28 -15 4 -6 0 -8 -9 -5 -8
4 -21 -2 -29 -13 -7 -10 -19 -19 -27 -19 -7 0 -15 -6 -18 -14 -3 -9 -16 -13
-32 -11 -15 2 -31 4 -36 4 -5 1 0 11 12 24 l21 22 -56 2 c-31 2 -66 9 -77 17
-12 7 -35 16 -52 20 -19 4 -36 16 -42 31 -11 24 -10 25 19 25 36 0 72 17 64
31 -4 5 -1 9 4 9 6 0 11 -4 11 -10 0 -5 9 -10 20 -10 30 0 24 17 -8 23 -39 8
-68 2 -64 -13 2 -9 -5 -10 -25 -5 -15 4 -40 7 -55 7 -17 1 -28 6 -28 14 0 8
-4 14 -10 14 -5 0 -10 7 -10 16 0 10 -6 14 -15 11 -8 -4 -17 -2 -20 3 -4 6 3
10 14 10 12 0 21 5 21 10 0 6 -5 10 -10 10 -6 0 -14 10 -19 23 -7 17 -4 25 13
34 11 7 17 13 11 14 -5 0 1 5 15 9 16 5 2 7 -40 5 -36 -2 -75 -6 -87 -10 -34
-11 -73 2 -73 24 0 10 -7 21 -15 25 -9 3 -15 0 -15 -8 0 -15 -29 -30 -38 -21
-3 3 0 11 6 17 19 19 14 45 -14 63 -18 11 -24 23 -21 36 9 34 -28 22 -46 -16z
m-246 -148 c-8 -8 -11 -7 -11 4 0 20 13 34 18 19 3 -7 -1 -17 -7 -23z m64 -29
c6 -3 27 -9 48 -13 20 -4 37 -12 37 -17 0 -6 -11 -8 -24 -6 -34 7 -62 -28 -64
-76 -2 -45 -8 -57 -27 -49 -8 3 -15 0 -15 -6 0 -6 7 -11 15 -11 13 0 39 -12
65 -28 2 -2 -2 -7 -10 -12 -11 -7 -9 -13 13 -30 19 -16 26 -28 22 -41 -8 -23
-4 -23 41 -4 20 8 33 19 29 25 -3 5 -1 10 4 10 6 0 11 -5 11 -12 0 -6 8 -4 20
7 23 20 55 13 46 -11 -3 -9 -6 -20 -6 -26 0 -6 -7 -8 -15 -4 -8 3 -15 1 -15
-4 0 -6 5 -10 11 -10 5 0 7 -4 4 -10 -3 -5 4 -23 16 -40 22 -30 22 -30 3 -45
-19 -14 -18 -14 3 -15 37 0 36 -20 -2 -35 -25 -11 -41 -13 -54 -6 -12 7 -21 7
-29 -1 -13 -13 -94 12 -100 31 -3 9 2 11 17 6 13 -4 28 -1 36 5 12 10 18 10
29 0 11 -8 20 -9 33 -1 16 9 15 11 -9 20 -16 6 -28 15 -28 21 0 5 -7 10 -15
10 -8 0 -15 9 -15 20 0 16 -5 19 -29 14 -21 -5 -30 -2 -35 12 -4 9 -2 22 4 28
13 13 13 39 0 31 -15 -9 -69 17 -63 31 2 6 -3 14 -11 17 -10 4 -16 1 -16 -8 0
-20 -24 -19 -40 0 -7 9 -20 13 -28 10 -12 -4 -12 -3 -3 9 9 11 8 17 -4 29 -8
9 -15 22 -15 31 0 23 51 66 79 66 19 0 21 3 12 14 -10 12 -8 17 9 26 16 9 19
15 11 23 -19 19 -12 32 17 32 15 0 32 -3 37 -7z m440 -11 c0 -26 -20 -25 -23
2 -3 16 1 22 10 19 7 -3 13 -12 13 -21z m895 -22 c0 -5 -11 -11 -25 -11 -21
-2 -25 2 -20 17 4 11 2 19 -4 19 -6 0 -11 4 -11 10 0 5 13 1 30 -8 16 -9 30
-21 30 -27z m-150 -30 c-9 -10 -9 -15 -1 -15 20 0 12 -17 -15 -29 -23 -10 -24
-14 -13 -28 12 -15 12 -16 -6 -9 -11 5 -30 11 -42 13 -33 7 -28 20 11 34 19 7
33 16 30 20 -2 4 4 12 13 18 26 15 37 13 23 -4z m-120 -20 c0 -8 -7 -15 -15
-15 -16 0 -20 12 -8 23 11 12 23 8 23 -8z m-610 -15 c0 -5 -2 -10 -4 -10 -3 0
-8 5 -11 10 -3 6 -1 10 4 10 6 0 11 -4 11 -10z m38 -22 c-6 -17 -36 -34 -45
-24 -4 4 1 14 11 22 24 17 39 18 34 2z m70 -12 c-7 -8 -15 -12 -17 -11 -5 6
10 25 20 25 5 0 4 -6 -3 -14z m622 -31 c0 -16 -35 -21 -45 -6 -4 8 9 15 38 20
4 0 7 -6 7 -14z m-529 -58 c10 -6 19 -20 21 -32 2 -15 12 -21 36 -23 22 -2 32
-8 32 -20 0 -23 -35 -79 -57 -90 -35 -19 -90 -24 -114 -11 -23 12 -23 12 -4
21 14 6 11 7 -13 3 -25 -3 -41 1 -59 15 l-26 20 -14 -20 c-10 -13 -25 -20 -49
-20 -42 0 -43 10 -4 32 36 20 39 49 8 63 -32 14 -29 38 4 39 29 2 41 -14 32
-39 -6 -14 5 -19 34 -16 6 1 12 -5 12 -12 0 -23 48 -50 76 -43 27 7 29 17 13
48 -8 15 -13 17 -19 8 -4 -7 -13 -9 -19 -5 -8 4 -4 14 13 29 26 22 34 46 16
46 -5 0 -10 7 -10 16 0 13 7 15 36 9 20 -3 45 -12 55 -18z m119 -32 c0 -9 -9
-15 -25 -15 -26 0 -34 15 -12 23 23 10 37 7 37 -8z m-480 -56 c0 -24 -12 -24
-27 0 -10 15 -10 21 0 24 18 6 27 -2 27 -24z m-30 -61 c0 -4 -11 -2 -25 4 -14
6 -25 15 -25 19 0 4 11 2 25 -4 14 -7 25 -15 25 -19z m40 -8 c0 -5 -5 -10 -11
-10 -5 0 -7 5 -4 10 3 6 8 10 11 10 2 0 4 -4 4 -10z m565 0 c4 -6 -7 -10 -27
-10 -44 0 -83 -21 -83 -45 0 -10 -6 -20 -13 -23 -8 -2 -10 2 -5 15 6 15 4 16
-9 6 -8 -7 -18 -10 -21 -6 -4 3 -7 1 -7 -5 0 -7 5 -12 10 -12 6 0 10 -7 10
-15 0 -13 -4 -14 -20 -5 -11 6 -20 17 -20 25 0 9 -10 15 -25 15 -14 0 -25 5
-25 10 0 6 15 10 33 10 18 0 38 5 43 10 6 6 39 17 75 24 81 18 77 18 84 6z
m-355 -29 c0 -5 -7 -11 -15 -15 -8 -3 -15 -13 -15 -23 0 -23 -17 -49 -26 -40
-4 3 -2 12 3 19 6 7 13 25 17 41 6 24 36 40 36 18z m355 -13 c14 -6 25 -14 25
-17 0 -3 -27 -7 -60 -9 -60 -3 -76 7 -42 27 23 14 46 13 77 -1z m-879 -44 c-3
-9 -6 -20 -6 -25 0 -5 -9 -9 -19 -9 -17 0 -18 3 -8 25 13 27 43 36 33 9z m673
-3 c25 -19 24 -54 -1 -50 -7 1 -30 -1 -50 -5 -28 -6 -42 -4 -62 11 -33 24 -33
39 2 51 42 16 85 13 111 -7z m-279 -11 c0 -5 -8 -10 -17 -10 -15 0 -16 2 -3
10 19 12 20 12 20 0z m-135 -20 c4 -6 -6 -10 -22 -9 -25 0 -26 1 -8 9 11 5 21
9 22 9 1 1 5 -3 8 -9z m68 3 c-7 -2 -21 -2 -30 0 -10 3 -4 5 12 5 17 0 24 -2
18 -5z m-293 -13 c0 -5 -4 -10 -10 -10 -5 0 -10 5 -10 10 0 6 5 10 10 10 6 0
10 -4 10 -10z m-220 -69 c0 -20 -13 -35 -23 -25 -7 8 4 44 14 44 5 0 9 -9 9
-19z"/>
<path d="M1590 3170 c0 -5 7 -10 16 -10 8 0 12 5 9 10 -3 6 -10 10 -16 10 -5
0 -9 -4 -9 -10z"/>
<path d="M1650 3112 c0 -18 48 -42 83 -42 30 0 19 30 -13 37 -17 3 -33 10 -36
14 -10 16 -34 9 -34 -9z"/>
<path d="M1547 3060 c-4 -16 4 -25 36 -44 23 -13 56 -27 72 -31 42 -9 20 9
-28 25 -24 7 -45 23 -56 42 -17 27 -19 28 -24 8z"/>
<path d="M1288 3033 c33 -16 50 -13 37 6 -3 6 -21 11 -38 11 l-32 0 33 -17z"/>
<path d="M1147 3024 c-8 -8 3 -34 14 -34 5 0 9 9 9 20 0 19 -11 26 -23 14z"/>
<path d="M1787 2999 c-4 -14 -11 -20 -21 -16 -10 4 -20 -2 -27 -15 -10 -18 -9
-20 5 -15 9 4 16 4 16 1 0 -10 -65 -64 -77 -64 -8 0 -13 -12 -13 -30 0 -16 -4
-30 -10 -30 -5 0 -10 -6 -10 -14 0 -8 -12 -25 -27 -38 -22 -18 -27 -30 -25
-55 4 -36 -22 -69 -77 -97 -17 -9 -31 -23 -31 -30 0 -8 -6 -16 -12 -19 -10 -3
-10 -7 -2 -18 8 -10 7 -21 -2 -39 -8 -14 -14 -19 -14 -12 0 6 -7 12 -16 12
-14 0 -16 -8 -11 -47 5 -50 5 -51 -55 -95 -34 -26 -38 -27 -53 -11 -16 15 -15
18 7 34 l23 18 -22 -6 c-22 -5 -27 -14 -24 -38 0 -6 -13 -16 -29 -23 -17 -8
-33 -24 -36 -38 -3 -13 -10 -22 -14 -19 -12 8 -62 -14 -56 -24 3 -4 17 -6 31
-3 14 2 31 -1 39 -7 15 -12 42 -6 68 16 9 8 22 12 27 8 6 -3 11 -1 11 4 0 6 6
11 14 11 8 0 21 9 29 20 8 11 16 17 19 14 4 -3 9 4 13 15 3 12 10 21 15 21 12
0 100 89 100 101 0 5 9 18 20 29 11 11 20 27 20 35 0 8 5 15 10 15 6 0 10 13
10 29 0 16 7 34 16 42 8 7 13 21 10 32 -5 22 22 70 35 61 5 -3 9 0 9 7 0 19
49 79 64 79 8 0 16 -9 19 -20 4 -15 0 -20 -14 -20 -23 0 -26 -35 -5 -43 17 -7
38 22 56 78 18 56 51 123 67 136 7 6 13 21 13 34 0 47 -72 76 -83 34z m27 -71
c-4 -6 -10 -5 -15 3 -14 22 -10 33 6 19 8 -7 12 -17 9 -22z"/>
<path d="M3412 2992 c-12 -2 -20 -8 -17 -13 8 -12 55 -12 55 0 0 14 -11 18
-38 13z"/>
<path d="M0 2933 c0 -43 5 -41 13 5 4 18 2 32 -3 32 -6 0 -10 -16 -10 -37z"/>
<path d="M2997 2935 c-20 -41 -15 -58 9 -33 9 9 14 27 12 43 l-3 28 -18 -38z"/>
<path d="M4307 2949 c-21 -5 -48 -15 -60 -21 -21 -12 -20 -13 18 -19 l40 -5
-47 -14 c-56 -16 -64 -40 -15 -40 18 0 38 -5 45 -12 9 -9 12 -8 12 4 0 9 10
24 22 32 12 9 19 19 15 22 -4 4 2 13 13 21 17 12 18 45 1 42 -3 -1 -23 -5 -44
-10z"/>
<path d="M4154 2895 c-19 -14 -18 -14 4 -15 12 0 22 4 22 9 0 5 10 12 23 14
20 4 20 4 -4 6 -14 0 -34 -6 -45 -14z"/>
<path d="M4375 2900 c-3 -5 -1 -10 4 -10 6 0 11 5 11 10 0 6 -2 10 -4 10 -3 0
-8 -4 -11 -10z"/>
<path d="M3603 2893 c-7 -2 -13 -10 -13 -17 0 -14 36 -46 53 -46 8 0 7 4 -3
10 -18 12 -18 12 100 14 52 1 102 -1 110 -5 18 -8 53 3 48 16 -2 5 -53 10
-115 11 -61 1 -120 7 -131 13 -22 12 -30 12 -49 4z"/>
<path d="M3695 2829 c-10 -15 3 -25 16 -12 7 7 7 13 1 17 -6 3 -14 1 -17 -5z"/>
<path d="M3930 2806 c0 -9 8 -16 18 -16 10 0 23 -5 30 -12 9 -9 15 -9 24 0 9
9 8 12 -5 12 -10 0 -29 7 -42 16 -23 15 -25 15 -25 0z"/>
<path d="M1140 2770 c-8 -5 -10 -10 -5 -10 6 0 17 5 25 10 8 5 11 10 5 10 -5
0 -17 -5 -25 -10z"/>
<path d="M3675 2770 c3 -5 10 -10 16 -10 5 0 9 5 9 10 0 6 -7 10 -16 10 -8 0
-12 -4 -9 -10z"/>
<path d="M3835 2770 c3 -5 10 -10 16 -10 5 0 9 5 9 10 0 6 -7 10 -16 10 -8 0
-12 -4 -9 -10z"/>
<path d="M3700 2716 c0 -15 37 -32 47 -22 3 3 3 12 0 21 -8 19 -47 20 -47 1z"/>
<path d="M1720 2674 c0 -8 5 -12 10 -9 6 3 10 10 10 16 0 5 -4 9 -10 9 -5 0
-10 -7 -10 -16z"/>
<path d="M0 2658 c0 -4 13 -8 30 -8 39 0 39 6 0 12 -17 3 -30 1 -30 -4z"/>
<path d="M76 2635 c4 -8 8 -15 10 -15 2 0 4 7 4 15 0 8 -4 15 -10 15 -5 0 -7
-7 -4 -15z"/>
<path d="M1708 2602 c-5 -49 -33 -101 -55 -102 -6 0 -15 -4 -18 -10 -7 -11 22
-71 39 -82 7 -5 4 -15 -11 -30 -19 -19 -23 -20 -23 -6 0 30 -20 30 -49 1 -15
-16 -39 -34 -53 -40 -14 -6 -34 -29 -44 -50 -11 -21 -22 -36 -25 -33 -3 3 -13
-1 -21 -8 -13 -10 -17 -10 -21 0 -3 9 -16 3 -43 -20 -21 -18 -59 -43 -84 -55
-68 -35 -90 -51 -90 -64 0 -25 -53 -43 -137 -45 -46 -2 -56 -16 -39 -56 7 -17
16 -22 30 -18 19 5 19 5 -1 -16 -18 -17 -19 -26 -11 -54 7 -26 5 -39 -7 -56
l-15 -22 0 23 c0 14 -7 25 -20 28 -11 3 -20 10 -20 16 0 5 -9 2 -20 -8 -19
-18 -20 -17 -20 3 0 12 -5 22 -10 22 -7 0 -9 -14 -5 -37 5 -31 4 -35 -5 -20
-9 14 -15 16 -26 6 -8 -6 -18 -9 -21 -5 -4 4 -1 11 7 16 8 5 12 11 10 14 -3 2
-16 -4 -29 -15 -19 -16 -21 -22 -11 -34 10 -12 10 -15 -3 -15 -9 0 -23 -9 -31
-21 -8 -12 -19 -18 -25 -15 -7 4 -8 1 -5 -8 4 -11 0 -16 -15 -16 -11 0 -35 -8
-53 -18 -29 -16 -122 -42 -149 -42 -5 0 -9 8 -10 18 0 14 -2 13 -9 -4 -6 -16
-15 -20 -37 -17 -28 5 -120 -30 -134 -49 -3 -5 -19 -11 -35 -14 -16 -3 -37
-12 -46 -21 -10 -9 -18 -12 -18 -8 0 4 -9 0 -19 -9 -11 -10 -38 -19 -60 -20
-22 -1 -43 -5 -47 -8 -3 -4 -21 -4 -39 -1 -23 4 -48 -2 -79 -17 l-46 -22 0
-268 0 -268 27 -6 c17 -5 29 -3 34 6 12 18 11 35 -1 41 -6 3 -5 4 2 3 7 -1 14
-14 16 -29 4 -30 -27 -52 -58 -42 -11 4 -20 2 -20 -4 0 -5 13 -12 30 -16 16
-4 32 -11 35 -16 10 -15 25 -10 25 9 0 10 3 13 8 6 12 -18 36 -21 51 -7 8 8
22 12 32 10 11 -3 19 -1 19 4 0 12 -26 12 -48 0 -13 -7 -23 -3 -40 16 l-23 25
26 -6 c14 -4 25 -2 25 4 0 5 8 10 18 10 15 1 14 3 -5 19 l-22 19 59 16 c32 9
60 22 63 29 3 9 9 9 30 0 33 -15 36 0 5 22 -23 17 -23 17 8 10 19 -3 41 0 60
10 16 8 47 15 70 15 22 0 45 5 52 12 9 9 12 8 12 -6 0 -9 4 -15 9 -12 4 3 24
-3 43 -13 30 -15 40 -16 59 -5 19 9 23 19 21 42 -2 19 2 32 10 35 7 2 5 3 -5
1 -11 -1 -26 0 -34 3 -12 5 -12 7 -1 14 7 5 22 9 32 9 10 0 24 7 30 15 10 14
13 14 31 1 20 -15 20 -16 -3 -22 -16 -5 -20 -9 -12 -14 17 -11 50 0 50 16 0
17 1 17 34 4 17 -6 26 -6 26 0 0 6 9 10 20 10 11 0 20 5 20 11 0 6 -7 9 -15 6
-8 -4 -17 -2 -21 4 -4 6 -12 5 -22 -3 -12 -10 -14 -10 -8 0 4 6 3 12 -2 12 -6
0 -12 6 -15 14 -5 11 -1 11 24 -1 32 -16 60 -14 66 3 2 6 -5 14 -17 17 -11 3
-20 11 -20 17 0 8 9 10 26 6 18 -5 24 -3 19 4 -4 7 7 4 24 -4 l31 -16 -11 27
c-8 23 -8 26 2 16 7 -7 22 -12 33 -12 17 1 18 2 4 6 -12 3 -18 14 -18 34 0 16
-5 29 -11 29 -5 0 -8 4 -5 9 9 14 41 6 41 -10 0 -14 14 -29 28 -29 4 0 7 6 7
13 0 7 16 13 40 14 34 1 39 -1 29 -13 -14 -17 2 -19 19 -2 13 13 -2 38 -24 38
-7 0 -16 5 -19 11 -4 6 -1 10 6 8 41 -5 67 2 72 21 3 12 14 20 26 20 21 0 21
1 5 25 -13 21 -14 25 -2 25 8 0 19 -5 26 -12 9 -9 12 -9 12 1 0 7 5 9 13 5 6
-4 2 3 -10 15 -12 11 -25 21 -28 21 -8 0 -35 27 -35 34 0 12 31 5 36 -8 3 -8
16 -17 29 -20 13 -3 30 -9 39 -12 9 -3 16 -1 16 5 0 6 -11 13 -25 17 -18 4
-25 13 -25 31 0 18 -4 24 -15 20 -26 -11 -27 13 -1 25 21 9 29 8 44 -5 24 -22
31 -21 25 3 -5 17 -1 20 28 19 19 0 28 -3 22 -6 -23 -9 -14 -30 12 -30 18 0
25 5 25 19 0 10 4 17 9 14 5 -3 11 1 15 9 7 19 -33 56 -56 53 -9 -2 -16 2 -15
7 1 6 19 8 41 7 25 -3 42 1 47 10 13 19 11 26 -8 31 -17 4 -17 5 0 6 14 1 17
6 11 23 -6 20 -5 21 8 10 11 -9 26 -10 54 -3 22 5 34 9 28 10 -8 1 -8 14 -1
47 9 37 15 46 36 50 15 3 31 17 39 32 17 37 15 42 -13 42 -14 0 -25 5 -25 11
0 5 4 8 9 4 5 -3 12 -1 16 5 9 14 48 13 63 -2 9 -9 12 -9 12 0 0 7 -7 15 -15
18 -8 4 -15 10 -15 15 0 4 7 6 15 3 8 -4 15 -1 15 5 0 6 -5 11 -12 11 -9 0 -9
3 -1 11 6 6 30 10 52 7 23 -2 41 -1 41 2 0 3 10 6 21 7 37 3 45 21 21 43 -11
11 -25 20 -30 20 -5 0 -16 7 -23 16 -11 14 -10 18 6 30 11 8 33 13 50 12 25
-3 30 1 28 17 -1 11 4 23 10 27 9 5 7 12 -5 24 -15 16 -15 18 3 38 18 18 18
22 4 32 -25 19 -17 23 36 19 42 -3 49 -2 39 10 -6 7 -23 16 -38 20 -48 11 -87
58 -71 86 9 18 24 149 17 149 -3 0 -8 -22 -10 -48z m-68 -272 c0 -5 -4 -10
-10 -10 -5 0 -10 5 -10 10 0 6 5 10 10 10 6 0 10 -4 10 -10z m10 -30 c0 -5 -7
-7 -15 -4 -8 4 -15 8 -15 10 0 2 7 4 15 4 8 0 15 -4 15 -10z m60 -30 c0 -5 -4
-10 -10 -10 -5 0 -10 5 -10 10 0 6 5 10 10 10 6 0 10 -4 10 -10z m-123 -120
c-2 -30 -17 -43 -17 -14 0 8 -4 12 -10 9 -15 -9 -12 2 6 19 21 22 24 20 21
-14z m-1297 -590 c0 -5 -12 -10 -27 -9 l-28 1 25 8 c14 4 26 8 28 9 1 1 2 -3
2 -9z m-141 -26 c11 -11 -7 -10 -34 3 l-30 14 30 -6 c16 -4 32 -9 34 -11z m79
-442 c2 -7 -2 -12 -9 -11 -8 2 -24 -1 -37 -5 -29 -10 -38 -2 -21 18 16 18 61
17 67 -2z m-110 -30 c2 -7 -1 -12 -8 -12 -6 0 -9 4 -6 9 4 5 1 12 -4 14 -6 3
-5 4 2 3 6 -1 14 -8 16 -14z"/>
<path d="M0 2606 c0 -20 5 -36 10 -36 6 0 10 13 10 29 0 17 -4 33 -10 36 -6 4
-10 -8 -10 -29z"/>
<path d="M1430 2622 c0 -11 22 -32 32 -32 5 0 4 9 -2 20 -11 20 -30 28 -30 12z"/>
<path d="M20 2550 c0 -5 5 -10 11 -10 5 0 7 5 4 10 -3 6 -8 10 -11 10 -2 0 -4
-4 -4 -10z"/>
<path d="M1070 2471 c0 -6 9 -11 20 -11 22 0 27 -16 8 -22 -9 -3 -9 -6 -1 -11
6 -4 18 0 26 8 23 23 31 18 14 -8 -23 -36 -26 -73 -5 -69 10 2 26 -1 36 -7 14
-7 20 -4 29 14 12 27 8 35 -20 35 -19 0 -19 1 -2 27 15 22 15 25 2 20 -8 -3
-18 0 -21 8 -3 8 -18 13 -34 13 -16 -1 -34 2 -41 6 -6 4 -11 2 -11 -3z"/>
<path d="M350 2380 c0 -24 31 -38 75 -34 25 3 45 2 45 -2 0 -4 -12 -23 -26
-42 -17 -21 -29 -52 -32 -81 -2 -25 -8 -51 -13 -56 -11 -15 -7 -55 8 -85 10
-19 10 -26 0 -32 -7 -4 -13 -3 -15 2 -5 14 -21 12 -38 -5 -24 -24 -41 -18 -42
14 0 25 4 31 29 36 47 11 33 26 -20 23 l-49 -3 1 -44 c2 -41 5 -45 35 -55 18
-6 30 -14 27 -18 -4 -3 14 -16 40 -27 53 -23 54 -38 5 -62 -20 -10 -29 -19
-22 -23 6 -4 20 -2 31 4 11 5 31 10 45 10 14 0 27 4 30 9 3 5 14 8 24 6 9 -1
11 0 5 2 -7 3 -13 15 -13 29 0 13 -4 24 -10 24 -5 0 -10 9 -10 20 0 10 -8 23
-17 29 -16 8 -15 11 7 30 28 23 80 27 109 10 13 -9 26 -9 50 -1 21 8 40 8 57
2 15 -6 23 -6 19 -1 -3 5 4 12 15 16 28 9 25 43 -4 56 -31 14 -51 79 -25 79 6
0 24 9 40 21 34 24 39 59 9 59 -11 0 -20 -4 -20 -8 0 -4 -16 -6 -35 -4 -25 3
-36 0 -41 -12 -3 -9 -10 -13 -15 -10 -5 3 -6 -2 -3 -10 4 -11 0 -16 -15 -16
-11 0 -26 -10 -32 -22 -7 -14 -14 -18 -16 -11 -4 12 3 24 45 68 12 13 22 28
22 32 0 5 13 14 30 21 22 10 34 11 50 2 28 -15 39 -4 14 14 -13 11 -39 14 -89
11 -38 -2 -76 1 -82 7 -7 5 -38 11 -70 13 -32 2 -70 8 -85 14 -16 6 -28 6 -28
1z m255 -50 c3 -5 1 -10 -4 -10 -6 0 -11 5 -11 10 0 6 2 10 4 10 3 0 8 -4 11
-10z m-175 -185 c0 -8 -4 -15 -10 -15 -5 0 -10 7 -10 15 0 8 5 15 10 15 6 0
10 -7 10 -15z m140 -35 c0 -5 -7 -10 -15 -10 -8 0 -15 5 -15 10 0 6 7 10 15
10 8 0 15 -4 15 -10z"/>
<path d="M1032 2330 c-18 -4 -42 -5 -53 -3 -10 3 -19 0 -19 -6 0 -6 7 -11 15
-11 8 0 15 -4 15 -10 0 -6 -18 -7 -43 -4 -35 5 -45 3 -50 -10 -4 -9 -13 -16
-21 -16 -8 0 -18 -5 -21 -10 -4 -7 14 -9 53 -6 64 6 93 14 104 29 3 6 19 10
35 11 21 1 29 6 31 24 4 24 3 24 -46 12z"/>
<path d="M401 2304 c0 -11 3 -14 6 -6 3 7 2 16 -1 19 -3 4 -6 -2 -5 -13z"/>
<path d="M0 2250 c0 -5 7 -10 16 -10 8 0 12 5 9 10 -3 6 -10 10 -16 10 -5 0
-9 -4 -9 -10z"/>
<path d="M160 2230 c-13 -8 -12 -10 3 -10 9 0 17 5 17 10 0 12 -1 12 -20 0z"/>
<path d="M924 2228 c-5 -8 -2 -9 11 -4 11 4 22 2 27 -6 6 -10 8 -8 8 5 0 19
-35 24 -46 5z"/>
<path d="M0 2221 c0 -5 9 -13 20 -16 21 -7 28 -25 9 -25 -5 0 -7 -5 -4 -10 5
-8 11 -8 19 -1 9 7 16 7 25 -2 10 -9 14 -8 22 6 6 9 17 17 25 17 35 0 4 24
-33 26 -23 1 -50 5 -62 9 -12 3 -21 2 -21 -4z"/>
<path d="M985 2209 c-3 -4 -2 -16 2 -27 8 -19 10 -20 43 -5 19 8 29 17 22 20
-6 3 -10 9 -7 13 3 5 -8 8 -25 8 -17 -1 -33 -4 -35 -9z"/>
<path d="M149 2184 c-11 -14 -9 -15 21 -12 18 2 35 9 38 16 6 18 -43 15 -59
-4z"/>
<path d="M925 2190 c-3 -5 -2 -10 4 -10 5 0 13 5 16 10 3 6 2 10 -4 10 -5 0
-13 -4 -16 -10z"/>
<path d="M822 2148 c-4 -4 -21 -8 -38 -10 -26 -2 -31 -6 -31 -25 0 -17 3 -21
11 -14 13 11 57 3 67 -12 11 -16 29 2 29 28 0 13 7 28 16 33 13 7 9 9 -15 8
-18 0 -35 -4 -39 -8z"/>
<path d="M47 2136 c-4 -9 -14 -12 -26 -9 -15 4 -21 1 -21 -11 0 -9 5 -16 10
-16 6 0 10 -7 10 -15 0 -18 4 -19 33 -2 12 6 23 12 25 13 1 1 -4 13 -12 28
-10 20 -15 23 -19 12z"/>
<path d="M160 2105 c-8 -9 -8 -15 -2 -15 12 0 26 19 19 26 -2 2 -10 -2 -17
-11z"/>
<path d="M94 2095 c-3 -8 -16 -17 -27 -21 -22 -7 -22 -7 -2 -15 15 -6 9 -8
-22 -8 -32 -1 -43 -5 -43 -17 0 -13 9 -14 57 -9 55 7 98 25 59 25 -17 0 -17 2
-3 24 15 23 13 36 -5 36 -5 0 -11 -7 -14 -15z"/>
<path d="M1177 2103 c-4 -3 -7 -11 -7 -17 0 -6 5 -5 12 2 6 6 9 14 7 17 -3 3
-9 2 -12 -2z"/>
<path d="M353 2073 c9 -2 25 -2 35 0 9 3 1 5 -18 5 -19 0 -27 -2 -17 -5z"/>
<path d="M515 1950 c-3 -5 1 -10 10 -10 9 0 13 5 10 10 -3 6 -8 10 -10 10 -2
0 -7 -4 -10 -10z"/>
<path d="M560 1930 c0 -5 5 -10 10 -10 6 0 10 5 10 10 0 6 -4 10 -10 10 -5 0
-10 -4 -10 -10z"/>
<path d="M91 1834 c-19 -8 -39 -14 -45 -13 -40 5 -46 -1 -46 -45 l0 -44 103 5
c56 3 105 10 108 15 3 5 12 8 20 7 22 -4 69 19 69 34 0 7 -17 23 -39 35 -46
26 -119 29 -170 6z"/>
<path d="M1415 1790 c3 -5 8 -10 11 -10 2 0 4 5 4 10 0 6 -5 10 -11 10 -5 0
-7 -4 -4 -10z"/>
<path d="M1766 1749 c2 -16 -4 -29 -17 -37 -10 -7 -19 -19 -19 -27 0 -8 -5
-14 -11 -12 -6 1 -14 -4 -16 -10 -3 -8 4 -13 15 -13 12 0 27 -6 34 -12 21 -19
56 -38 71 -38 7 0 21 18 31 40 21 48 15 60 -45 91 -21 10 -39 24 -42 31 -2 7
-3 2 -1 -13z"/>
<path d="M610 1759 c0 -5 5 -7 10 -4 6 3 10 8 10 11 0 2 -4 4 -10 4 -5 0 -10
-5 -10 -11z"/>
<path d="M1586 1621 c-4 -5 -2 -12 3 -15 5 -4 12 -2 15 3 4 5 2 12 -3 15 -5 4
-12 2 -15 -3z"/>
<path d="M1670 1590 c0 -5 5 -10 11 -10 5 0 7 5 4 10 -3 6 -8 10 -11 10 -2 0
-4 -4 -4 -10z"/>
<path d="M1690 1559 c0 -5 5 -7 10 -4 6 3 10 8 10 11 0 2 -4 4 -10 4 -5 0 -10
-5 -10 -11z"/>
<path d="M1736 1551 c-4 -5 -2 -12 3 -15 5 -4 12 -2 15 3 4 5 2 12 -3 15 -5 4
-12 2 -15 -3z"/>
<path d="M1335 1540 c-3 -5 -2 -10 4 -10 5 0 13 5 16 10 3 6 2 10 -4 10 -5 0
-13 -4 -16 -10z"/>
<path d="M1975 1542 c-3 -3 -5 -18 -5 -34 0 -16 -5 -38 -11 -50 -6 -11 -8 -22
-6 -25 6 -5 40 57 51 93 4 15 2 21 -9 21 -8 0 -17 -3 -20 -5z"/>
<path d="M1641 1524 c0 -11 3 -14 6 -6 3 7 2 16 -1 19 -3 4 -6 -2 -5 -13z"/>
<path d="M920 1305 c0 -8 5 -15 10 -15 6 0 10 5 10 11 0 5 5 7 10 4 6 -3 10
-1 10 4 0 6 -9 11 -20 11 -11 0 -20 -7 -20 -15z"/>
<path d="M1166 1223 c-6 -14 -5 -15 5 -6 7 7 10 15 7 18 -3 3 -9 -2 -12 -12z"/>
<path d="M336 1105 c-6 -16 11 -20 32 -6 11 7 10 10 -3 15 -22 8 -22 8 -29 -9z"/>
<path d="M470 1085 c7 -8 16 -15 21 -15 5 0 6 7 3 15 -4 8 -13 15 -21 15 -13
0 -13 -3 -3 -15z"/>
<path d="M200 1010 c14 -4 39 -8 55 -8 25 -1 27 1 10 8 -11 5 -36 8 -55 8 -32
0 -33 -1 -10 -8z"/>
<path d="M348 1013 c7 -3 16 -2 19 1 4 3 -2 6 -13 5 -11 0 -14 -3 -6 -6z"/>
<path d="M6 935 c4 -8 8 -15 10 -15 2 0 4 7 4 15 0 8 -4 15 -10 15 -5 0 -7 -7
-4 -15z"/>
<path d="M876 924 c-9 -24 -7 -28 9 -14 17 14 20 30 6 30 -5 0 -12 -7 -15 -16z"/>
<path d="M860 886 c0 -2 7 -7 16 -10 8 -3 12 -2 9 4 -6 10 -25 14 -25 6z"/>
<path d="M810 849 c0 -5 5 -7 10 -4 6 3 10 8 10 11 0 2 -4 4 -10 4 -5 0 -10
-5 -10 -11z"/>
<path d="M4325 810 c-3 -5 -1 -10 4 -10 6 0 11 5 11 10 0 6 -2 10 -4 10 -3 0
-8 -4 -11 -10z"/>
<path d="M4365 810 c3 -5 10 -10 16 -10 5 0 9 5 9 10 0 6 -7 10 -16 10 -8 0
-12 -4 -9 -10z"/>
<path d="M4278 803 c7 -3 16 -2 19 1 4 3 -2 6 -13 5 -11 0 -14 -3 -6 -6z"/>
<path d="M645 760 c-3 -5 -1 -10 4 -10 6 0 11 5 11 10 0 6 -2 10 -4 10 -3 0
-8 -4 -11 -10z"/>
<path d="M3554 762 c-41 -4 -56 -42 -18 -42 15 0 24 6 24 16 0 14 3 14 15 4
13 -11 13 -15 3 -22 -9 -7 -5 -8 12 -3 14 3 39 10 55 14 17 4 42 4 55 -1 38
-15 140 -20 140 -7 0 6 -9 9 -20 6 -11 -3 -23 -1 -26 4 -3 5 22 8 58 8 48 -1
56 -3 33 -9 l-30 -7 28 -7 c17 -5 33 -4 42 4 8 7 22 10 30 6 10 -3 15 1 15 13
0 17 -9 19 -102 19 -57 0 -136 2 -175 5 -44 4 -75 2 -79 -4 -3 -5 -11 -6 -17
-2 -7 5 -26 7 -43 5z"/>
<path d="M3212 753 c-18 -3 -30 -9 -26 -14 3 -6 24 -7 50 -3 30 4 44 3 44 -5
0 -6 -7 -11 -17 -11 -22 0 -14 -6 21 -14 25 -6 28 -5 23 13 -4 16 0 21 15 21
17 0 18 -3 8 -15 -13 -16 -11 -17 38 -28 19 -4 21 -3 12 8 -7 8 -9 19 -5 25
10 17 39 11 53 -10 7 -12 17 -18 23 -14 8 4 7 9 -2 15 -7 4 -10 11 -6 15 4 4
12 3 19 -4 8 -8 14 -7 24 3 8 7 14 15 14 17 0 4 -249 5 -288 1z"/>
<path d="M4012 748 c-27 -27 -11 -35 35 -17 22 8 24 12 13 19 -20 13 -34 12
-48 -2z"/>
<path d="M4118 753 c-44 -5 -50 -18 -10 -25 59 -11 166 1 151 16 -8 8 -102 14
-141 9z"/>
<path d="M4340 720 c0 -5 9 -10 20 -10 11 0 20 5 20 10 0 6 -9 10 -20 10 -11
0 -20 -4 -20 -10z"/>
<path d="M3080 710 c0 -5 12 -10 28 -9 24 0 25 1 7 9 -27 12 -35 12 -35 0z"/>
<path d="M3190 710 c0 -13 20 -13 40 0 12 8 9 10 -12 10 -16 0 -28 -4 -28 -10z"/>
<path d="M4225 709 c-10 -15 3 -25 16 -12 7 7 7 13 1 17 -6 3 -14 1 -17 -5z"/>
<path d="M3546 703 c-11 -11 -6 -21 14 -26 11 -3 20 -3 20 0 0 10 -28 32 -34
26z"/>
<path d="M3650 690 c0 -6 25 -10 60 -10 33 0 60 -4 60 -10 0 -5 5 -10 10 -10
8 0 15 29 8 31 -34 8 -138 7 -138 -1z"/>
<path d="M3225 680 c3 -5 11 -10 16 -10 6 0 7 5 4 10 -3 6 -11 10 -16 10 -6 0
-7 -4 -4 -10z"/>
<path d="M3007 669 c8 -8 16 -8 30 0 16 9 14 10 -11 11 -22 0 -27 -3 -19 -11z"/>
<path d="M3108 673 c6 -2 18 -2 25 0 6 3 1 5 -13 5 -14 0 -19 -2 -12 -5z"/>
<path d="M3930 660 c0 -5 7 -10 16 -10 8 0 12 5 9 10 -3 6 -10 10 -16 10 -5 0
-9 -4 -9 -10z"/>
<path d="M3410 650 c-18 -6 -9 -8 34 -9 33 -1 57 1 55 3 -10 9 -67 12 -89 6z"/>
<path d="M407 629 c-3 -12 0 -22 9 -26 16 -6 19 -30 4 -35 -6 -2 -6 -8 0 -18
8 -12 10 -12 10 5 0 16 2 17 10 5 5 -8 13 -11 17 -6 4 5 2 11 -5 13 -6 3 -15
22 -18 44 -7 43 -19 51 -27 18z"/>
<path d="M3075 621 c-10 -17 11 -21 31 -6 18 14 18 14 -3 15 -12 0 -24 -4 -28
-9z"/>
<path d="M304 596 c11 -9 18 -17 15 -19 -2 -1 -16 -9 -31 -17 -16 -7 -28 -20
-28 -27 0 -8 5 -11 10 -8 6 3 10 1 10 -6 0 -8 4 -8 15 1 13 10 19 10 33 -4 22
-19 43 -21 60 -4 16 16 16 52 0 42 -11 -7 -37 -9 -70 -4 -7 1 -3 5 10 10 12 5
28 7 36 4 22 -8 30 16 12 34 -13 13 -20 14 -34 5 -12 -7 -25 -8 -38 -1 -19 9
-19 9 0 -6z m71 -16 c3 -5 1 -10 -4 -10 -6 0 -11 5 -11 10 0 6 2 10 4 10 3 0
8 -4 11 -10z"/>
<path d="M3170 596 c0 -2 18 -6 40 -8 22 -2 40 0 40 4 0 5 -18 8 -40 8 -22 0
-40 -2 -40 -4z"/>
<path d="M223 564 c-7 -3 -9 -12 -6 -20 3 -8 -1 -14 -9 -14 -8 0 -25 -9 -38
-20 -13 -11 -18 -20 -12 -20 6 0 18 7 26 16 9 9 16 11 16 4 0 -18 19 -2 35 31
15 28 13 33 -12 23z"/>
<path d="M54 502 c-6 -4 -14 -17 -18 -29 -4 -13 -12 -23 -17 -23 -13 0 -11 14
4 29 10 10 9 11 -5 6 -13 -5 -18 -18 -18 -48 0 -40 1 -41 15 -20 9 13 22 19
34 16 13 -3 20 2 24 19 14 50 7 68 -19 50z"/>
<path d="M256 493 c-8 -8 -13 -9 -41 -12 -9 0 -20 -11 -26 -24 -16 -36 -45
-50 -69 -35 -15 10 -23 10 -28 2 -11 -17 -71 -46 -82 -39 -6 4 -10 -13 -10
-40 0 -39 3 -46 18 -41 9 3 30 8 45 12 21 5 26 11 22 25 -4 13 -1 19 9 19 9 0
16 -7 16 -16 0 -8 5 -12 10 -9 6 4 8 11 4 16 -3 5 0 16 6 24 10 12 9 15 -7 15
-10 0 -24 -5 -31 -12 -14 -14 -27 -4 -17 13 5 7 23 9 52 5 26 -3 42 -2 38 4
-3 5 3 14 14 19 14 8 21 8 24 -2 2 -6 7 3 11 21 4 17 13 32 20 32 15 0 55 29
40 30 -6 0 -14 -3 -18 -7z m-199 -159 c-3 -3 -12 -4 -19 -1 -8 3 -5 6 6 6 11
1 17 -2 13 -5z"/>
<path d="M130 451 c0 -6 5 -13 10 -16 6 -3 10 1 10 9 0 9 -4 16 -10 16 -5 0
-10 -4 -10 -9z"/>
<path d="M3208 353 c6 -2 18 -2 25 0 6 3 1 5 -13 5 -14 0 -19 -2 -12 -5z"/>
<path d="M3258 353 c7 -3 16 -2 19 1 4 3 -2 6 -13 5 -11 0 -14 -3 -6 -6z"/>
<path d="M3308 353 c7 -3 16 -2 19 1 4 3 -2 6 -13 5 -11 0 -14 -3 -6 -6z"/>
<path d="M213 183 c9 -2 23 -2 30 0 6 3 -1 5 -18 5 -16 0 -22 -2 -12 -5z"/>
<path d="M278 183 c6 -2 18 -2 25 0 6 3 1 5 -13 5 -14 0 -19 -2 -12 -5z"/>
<path d="M368 183 c23 -2 61 -2 85 0 23 2 4 4 -43 4 -47 0 -66 -2 -42 -4z"/>
<path d="M568 183 c28 -2 76 -2 105 0 28 2 5 3 -53 3 -58 0 -81 -1 -52 -3z"/>
<path d="M484 151 c6 -8 176 -4 185 5 2 2 -39 4 -93 4 -55 0 -95 -4 -92 -9z"/>
<path d="M4088 153 c12 -2 30 -2 40 0 9 3 -1 5 -23 4 -22 0 -30 -2 -17 -4z"/>
<path d="M3423 123 c9 -2 25 -2 35 0 9 3 1 5 -18 5 -19 0 -27 -2 -17 -5z"/>
<path d="M3498 123 c6 -2 18 -2 25 0 6 3 1 5 -13 5 -14 0 -19 -2 -12 -5z"/>
<path d="M330 110 l-35 -7 43 -2 c27 0 41 3 37 9 -3 6 -7 9 -8 9 -1 -1 -18 -5
-37 -9z"/>
<path d="M3683 113 c9 -2 23 -2 30 0 6 3 -1 5 -18 5 -16 0 -22 -2 -12 -5z"/>
<path d="M18 103 c12 -2 32 -2 45 0 12 2 2 4 -23 4 -25 0 -35 -2 -22 -4z"/>
<path d="M213 103 c9 -2 23 -2 30 0 6 3 -1 5 -18 5 -16 0 -22 -2 -12 -5z"/>
<path d="M448 73 c6 -2 18 -2 25 0 6 3 1 5 -13 5 -14 0 -19 -2 -12 -5z"/>
<path d="M2970 39 c0 -5 5 -7 10 -4 6 3 10 8 10 11 0 2 -4 4 -10 4 -5 0 -10
-5 -10 -11z"/>
<path d="M189 9 c-10 -6 -7 -9 14 -9 29 0 35 5 14 13 -8 3 -20 1 -28 -4z"/>
</g>
</svg>
